<svg xmlns="http://www.w3.org/2000/svg" viewBox="0 0 512 512" role="img" aria-labelledby="title desc">
  <title id="title">Home logo</title>
  <desc id="desc">Gradient circular icon with white home symbol</desc>
  <defs>
    <linearGradient id="g" x1="0" y1="0" x2="0" y2="1">
      <stop offset="0%" stop-color="#f000ff"/>
      <stop offset="100%" stop-color="#00c7ff"/>
    </linearGradient>
  </defs>
  <circle cx="256" cy="256" r="256" fill="url(#g)"/>
  <path fill="#f2f2f2" d="M256 149l95 76v-41h36v70l42 33a5 5 0 0 1-3 9h-25v157a7 7 0 0 1-7 7h-99v-100c0-7-5-12-12-12h-54c-7 0-12 5-12 12v100h-99a7 7 0 0 1-7-7V296H85a5 5 0 0 1-3-9l174-138z"/>
</svg>
