<svg xmlns="http://www.w3.org/2000/svg" style="display:none">
  <symbol id="electrician" viewBox="0 0 24 24"><path d="M13 2 6 13h5l-1 9 8-12h-5l1-8Z" fill="none" stroke="currentColor" stroke-width="1.8" stroke-linecap="round" stroke-linejoin="round"/></symbol>
  <symbol id="carpenter" viewBox="0 0 24 24"><path d="M4 18 18 4l2 2L6 20H4v-2Z" fill="none" stroke="currentColor" stroke-width="1.8" stroke-linecap="round" stroke-linejoin="round"/><path d="m14 4 6 6" fill="none" stroke="currentColor" stroke-width="1.8" stroke-linecap="round"/></symbol>
  <symbol id="plumber" viewBox="0 0 24 24"><path d="M8 4v4l3 3-6 6 2 2 6-6 3 3h4v-4l-3-3V4h-2v4h-6V4H8Z" fill="none" stroke="currentColor" stroke-width="1.8" stroke-linecap="round" stroke-linejoin="round"/></symbol>
  <symbol id="geyser" viewBox="0 0 24 24"><rect x="6" y="3" width="12" height="16" rx="3" fill="none" stroke="currentColor" stroke-width="1.8"/><path d="M10 7h4M9 13c1-1.2 1-2.2 0-3.4M12 13c1-1.2 1-2.2 0-3.4M15 13c1-1.2 1-2.2 0-3.4" fill="none" stroke="currentColor" stroke-width="1.8" stroke-linecap="round"/></symbol>
  <symbol id="washing-machine" viewBox="0 0 24 24"><rect x="5" y="3" width="14" height="18" rx="2" fill="none" stroke="currentColor" stroke-width="1.8"/><circle cx="12" cy="13" r="4" fill="none" stroke="currentColor" stroke-width="1.8"/><path d="M8 6h1M11 6h5" fill="none" stroke="currentColor" stroke-width="1.8" stroke-linecap="round"/></symbol>
  <symbol id="goods-carrier" viewBox="0 0 24 24"><path d="M3 7h11v8H3zM14 10h3l3 3v2h-6z" fill="none" stroke="currentColor" stroke-width="1.8" stroke-linejoin="round"/><circle cx="8" cy="18" r="2" fill="none" stroke="currentColor" stroke-width="1.8"/><circle cx="18" cy="18" r="2" fill="none" stroke="currentColor" stroke-width="1.8"/></symbol>
  <symbol id="water-purifier" viewBox="0 0 24 24"><rect x="7" y="3" width="10" height="18" rx="3" fill="none" stroke="currentColor" stroke-width="1.8"/><path d="M12 8c1.6 1.8 2.4 3.1 2.4 4.3A2.4 2.4 0 0 1 12 14.7a2.4 2.4 0 0 1-2.4-2.4c0-1.2.8-2.5 2.4-4.3Z" fill="none" stroke="currentColor" stroke-width="1.8" stroke-linejoin="round"/></symbol>
  <symbol id="painting" viewBox="0 0 24 24"><path d="M4 16c0-6 4-10 9-10 4.3 0 7 2.7 7 6 0 2-1.4 3-3.2 3H15c-1 0-1.8.8-1.8 1.8 0 1.7-1.3 3.2-3.7 3.2C6.5 20 4 18.4 4 16Z" fill="none" stroke="currentColor" stroke-width="1.8" stroke-linejoin="round"/><circle cx="9" cy="11" r="1" fill="currentColor"/><circle cx="13" cy="9" r="1" fill="currentColor"/><circle cx="16" cy="12" r="1" fill="currentColor"/></symbol>
  <symbol id="refrigerator" viewBox="0 0 24 24"><rect x="7" y="3" width="10" height="18" rx="2" fill="none" stroke="currentColor" stroke-width="1.8"/><path d="M7 11h10M15 7v2M15 15v2" fill="none" stroke="currentColor" stroke-width="1.8" stroke-linecap="round"/></symbol>
  <symbol id="tiles" viewBox="0 0 24 24"><path d="M4 4h7v7H4zM13 4h7v7h-7zM4 13h7v7H4zM13 13h7v7h-7z" fill="none" stroke="currentColor" stroke-width="1.8"/></symbol>
  <symbol id="peripherals" viewBox="0 0 24 24"><path d="M5 7h10v7H5zM17 9h2l2 2v3h-4zM8 18h4M10 14v4" fill="none" stroke="currentColor" stroke-width="1.8" stroke-linecap="round" stroke-linejoin="round"/></symbol>
  <symbol id="hardware" viewBox="0 0 24 24"><rect x="4" y="5" width="16" height="10" rx="2" fill="none" stroke="currentColor" stroke-width="1.8"/><path d="M9 19h6M12 15v4" fill="none" stroke="currentColor" stroke-width="1.8" stroke-linecap="round"/></symbol>
  <symbol id="printer" viewBox="0 0 24 24"><path d="M7 8V4h10v4M6 17H5a2 2 0 0 1-2-2v-4a3 3 0 0 1 3-3h12a3 3 0 0 1 3 3v4a2 2 0 0 1-2 2h-1" fill="none" stroke="currentColor" stroke-width="1.8" stroke-linecap="round" stroke-linejoin="round"/><rect x="7" y="14" width="10" height="6" rx="1" fill="none" stroke="currentColor" stroke-width="1.8"/></symbol>
  <symbol id="cartridge" viewBox="0 0 24 24"><path d="M8 6h8v4h2v8H6v-8h2z" fill="none" stroke="currentColor" stroke-width="1.8" stroke-linejoin="round"/><path d="M10 4h4M9 14h6" fill="none" stroke="currentColor" stroke-width="1.8" stroke-linecap="round"/></symbol>
  <symbol id="chip-level" viewBox="0 0 24 24"><rect x="7" y="7" width="10" height="10" rx="1.5" fill="none" stroke="currentColor" stroke-width="1.8"/><path d="M9 1v4M15 1v4M9 19v4M15 19v4M1 9h4M1 15h4M19 9h4M19 15h4" fill="none" stroke="currentColor" stroke-width="1.8" stroke-linecap="round"/></symbol>
  <symbol id="networking" viewBox="0 0 24 24"><path d="M4 17a12 12 0 0 1 16 0M7 13a8 8 0 0 1 10 0M10 9a4 4 0 0 1 4 0" fill="none" stroke="currentColor" stroke-width="1.8" stroke-linecap="round"/><circle cx="12" cy="19" r="1.2" fill="currentColor"/></symbol>
  <symbol id="amc-services" viewBox="0 0 24 24"><rect x="5" y="4" width="14" height="16" rx="2" fill="none" stroke="currentColor" stroke-width="1.8"/><path d="M8 8h8M8 12h8M8 16h5" fill="none" stroke="currentColor" stroke-width="1.8" stroke-linecap="round"/></symbol>
  <symbol id="camera-services" viewBox="0 0 24 24"><path d="M4 9h12a3 3 0 0 1 3 3v3a3 3 0 0 1-3 3H4z" fill="none" stroke="currentColor" stroke-width="1.8" stroke-linejoin="round"/><circle cx="10" cy="13.5" r="2.5" fill="none" stroke="currentColor" stroke-width="1.8"/><path d="m16 11 4-2v9l-4-2" fill="none" stroke="currentColor" stroke-width="1.8" stroke-linejoin="round"/></symbol>
  <symbol id="data-recovery" viewBox="0 0 24 24"><ellipse cx="12" cy="6" rx="6.5" ry="2.5" fill="none" stroke="currentColor" stroke-width="1.8"/><path d="M5.5 6v8c0 1.4 2.9 2.5 6.5 2.5s6.5-1.1 6.5-2.5V6" fill="none" stroke="currentColor" stroke-width="1.8"/><path d="m9 20 2 2 4-4" fill="none" stroke="currentColor" stroke-width="1.8" stroke-linecap="round" stroke-linejoin="round"/></symbol>
  <symbol id="c-language" viewBox="0 0 24 24"><path d="M15.5 7.5A6 6 0 1 0 15.5 16.5" fill="none" stroke="currentColor" stroke-width="1.8" stroke-linecap="round"/><path d="M17.5 9.5v5M20 12h-5" fill="none" stroke="currentColor" stroke-width="1.8" stroke-linecap="round"/></symbol>
  <symbol id="python-course" viewBox="0 0 24 24"><path d="M8 4h5a3 3 0 0 1 3 3v2H9a3 3 0 0 0-3 3v1H4v-2a7 7 0 0 1 7-7Z" fill="none" stroke="currentColor" stroke-width="1.8" stroke-linejoin="round"/><path d="M16 20h-5a3 3 0 0 1-3-3v-2h7a3 3 0 0 0 3-3v-1h2v2a7 7 0 0 1-7 7Z" fill="none" stroke="currentColor" stroke-width="1.8" stroke-linejoin="round"/><circle cx="10" cy="6.5" r="1" fill="currentColor"/><circle cx="14" cy="17.5" r="1" fill="currentColor"/></symbol>
  <symbol id="frontend-web" viewBox="0 0 24 24"><rect x="3" y="5" width="18" height="14" rx="2" fill="none" stroke="currentColor" stroke-width="1.8"/><path d="M8.5 10 6 12l2.5 2M15.5 10 18 12l-2.5 2M13 9l-2 6" fill="none" stroke="currentColor" stroke-width="1.8" stroke-linecap="round" stroke-linejoin="round"/></symbol>
  <symbol id="java-course" viewBox="0 0 24 24"><path d="M8 18h8a3 3 0 0 0 0-6c0-2-1.5-3-4-3S8 10 8 12a3 3 0 0 0 0 6Z" fill="none" stroke="currentColor" stroke-width="1.8"/><path d="M12 4c1 1 1.2 1.8 0 2.8M15 4c1 1 1.2 1.8 0 2.8" fill="none" stroke="currentColor" stroke-width="1.8" stroke-linecap="round"/></symbol>
  <symbol id="sql-course" viewBox="0 0 24 24"><ellipse cx="12" cy="6" rx="6.5" ry="2.5" fill="none" stroke="currentColor" stroke-width="1.8"/><path d="M5.5 6v4c0 1.4 2.9 2.5 6.5 2.5s6.5-1.1 6.5-2.5V6M5.5 10v4c0 1.4 2.9 2.5 6.5 2.5s6.5-1.1 6.5-2.5v-4" fill="none" stroke="currentColor" stroke-width="1.8"/></symbol>
  <symbol id="data-structures" viewBox="0 0 24 24"><path d="M7 5h10M7 12h10M7 19h10" fill="none" stroke="currentColor" stroke-width="1.8" stroke-linecap="round"/><circle cx="5" cy="5" r="1.4" fill="currentColor"/><circle cx="19" cy="12" r="1.4" fill="currentColor"/><circle cx="5" cy="19" r="1.4" fill="currentColor"/></symbol>
  <symbol id="algorithms" viewBox="0 0 24 24"><circle cx="6" cy="6" r="2" fill="none" stroke="currentColor" stroke-width="1.8"/><circle cx="18" cy="6" r="2" fill="none" stroke="currentColor" stroke-width="1.8"/><circle cx="12" cy="18" r="2" fill="none" stroke="currentColor" stroke-width="1.8"/><path d="M8 7.5 10.5 16M16 7.5 13.5 16M8 6h8" fill="none" stroke="currentColor" stroke-width="1.8" stroke-linecap="round"/></symbol>
  <symbol id="power-bi" viewBox="0 0 24 24"><path d="M5 18V10M10 18V6M15 18v-8M20 18v-4" fill="none" stroke="currentColor" stroke-width="1.8" stroke-linecap="round"/></symbol>
  <symbol id="bootstrap-course" viewBox="0 0 24 24"><rect x="5" y="4" width="14" height="16" rx="3" fill="none" stroke="currentColor" stroke-width="1.8"/><path d="M10 8h3.5a2 2 0 0 1 0 4H10zm0 4h4a2 2 0 0 1 0 4h-4z" fill="none" stroke="currentColor" stroke-width="1.8" stroke-linejoin="round"/></symbol>
  <symbol id="full-stack" viewBox="0 0 24 24"><rect x="3" y="4" width="8" height="6" rx="1.5" fill="none" stroke="currentColor" stroke-width="1.8"/><rect x="13" y="4" width="8" height="6" rx="1.5" fill="none" stroke="currentColor" stroke-width="1.8"/><rect x="8" y="14" width="8" height="6" rx="1.5" fill="none" stroke="currentColor" stroke-width="1.8"/><path d="M11 7h2M9 14v-2a2 2 0 0 1 2-2h2a2 2 0 0 1 2 2v2" fill="none" stroke="currentColor" stroke-width="1.8" stroke-linecap="round"/></symbol>
  <symbol id="exam-prep" viewBox="0 0 24 24"><circle cx="12" cy="12" r="7" fill="none" stroke="currentColor" stroke-width="1.8"/><circle cx="12" cy="12" r="2" fill="none" stroke="currentColor" stroke-width="1.8"/><path d="m12 12 5-5" fill="none" stroke="currentColor" stroke-width="1.8" stroke-linecap="round"/></symbol>
  <symbol id="mpc-foundation" viewBox="0 0 24 24"><path d="M4 18h16M6 18l3-9 3 6 3-10 3 13" fill="none" stroke="currentColor" stroke-width="1.8" stroke-linecap="round" stroke-linejoin="round"/></symbol>
  <symbol id="aptitude" viewBox="0 0 24 24"><path d="M12 21c4-2.4 7-5.9 7-10a7 7 0 1 0-14 0c0 4.1 3 7.6 7 10Z" fill="none" stroke="currentColor" stroke-width="1.8" stroke-linejoin="round"/><path d="M10 10h4M12 8v4" fill="none" stroke="currentColor" stroke-width="1.8" stroke-linecap="round"/></symbol>
  <symbol id="logical-reasoning" viewBox="0 0 24 24"><path d="M6 7h6v6H6zM12 11h6v6h-6zM12 7h6M6 17h6" fill="none" stroke="currentColor" stroke-width="1.8" stroke-linejoin="round"/></symbol>
  <symbol id="website-development" viewBox="0 0 24 24"><rect x="3" y="5" width="18" height="14" rx="2" fill="none" stroke="currentColor" stroke-width="1.8"/><path d="M3 9h18M8 14h8" fill="none" stroke="currentColor" stroke-width="1.8" stroke-linecap="round"/></symbol>
  <symbol id="web-application-development" viewBox="0 0 24 24"><rect x="3" y="5" width="18" height="14" rx="2" fill="none" stroke="currentColor" stroke-width="1.8"/><path d="M9 10h6M9 14h4M16.5 8.5 19 11l-2.5 2.5" fill="none" stroke="currentColor" stroke-width="1.8" stroke-linecap="round" stroke-linejoin="round"/></symbol>
  <symbol id="mobile-app-development" viewBox="0 0 24 24"><rect x="8" y="3" width="8" height="18" rx="2" fill="none" stroke="currentColor" stroke-width="1.8"/><path d="M11 6h2M11 18h2" fill="none" stroke="currentColor" stroke-width="1.8" stroke-linecap="round"/></symbol>
  <symbol id="ui-ux-design" viewBox="0 0 24 24"><path d="M5 16c0-5 4-9 9-9 3.5 0 5 1.8 5 4.2 0 1.6-1.2 2.8-2.8 2.8H14a2 2 0 0 0-2 2c0 1.7-1.3 3-3.5 3C6.1 19 5 17.8 5 16Z" fill="none" stroke="currentColor" stroke-width="1.8"/><circle cx="10" cy="11" r="1" fill="currentColor"/><circle cx="14" cy="9" r="1" fill="currentColor"/></symbol>
  <symbol id="e-commerce-website" viewBox="0 0 24 24"><path d="M5 7h2l2 9h8l2-6H8" fill="none" stroke="currentColor" stroke-width="1.8" stroke-linecap="round" stroke-linejoin="round"/><circle cx="10" cy="19" r="1.5" fill="none" stroke="currentColor" stroke-width="1.8"/><circle cx="17" cy="19" r="1.5" fill="none" stroke="currentColor" stroke-width="1.8"/></symbol>
  <symbol id="domains-hosting" viewBox="0 0 24 24"><circle cx="12" cy="12" r="8" fill="none" stroke="currentColor" stroke-width="1.8"/><path d="M4 12h16M12 4a12 12 0 0 1 0 16M12 4a12 12 0 0 0 0 16" fill="none" stroke="currentColor" stroke-width="1.8"/></symbol>
  <symbol id="digital-marketing" viewBox="0 0 24 24"><path d="M4 13V9l9-3v12l-9-3v-2Zm9-2h4l3 3v2h-2" fill="none" stroke="currentColor" stroke-width="1.8" stroke-linejoin="round" stroke-linecap="round"/></symbol>
  <symbol id="graphic-brand-design" viewBox="0 0 24 24"><path d="M5 17 17 5l2 2L7 19H5v-2ZM14 6l4 4" fill="none" stroke="currentColor" stroke-width="1.8" stroke-linecap="round" stroke-linejoin="round"/></symbol>
  <symbol id="content-seo-support" viewBox="0 0 24 24"><circle cx="10.5" cy="10.5" r="5.5" fill="none" stroke="currentColor" stroke-width="1.8"/><path d="m15 15 4 4M8 10.5h5" fill="none" stroke="currentColor" stroke-width="1.8" stroke-linecap="round"/></symbol>
  <symbol id="website-maintenance" viewBox="0 0 24 24"><path d="M14 5a4 4 0 0 0 5 5l-8 8-3 1 1-3 8-8a4 4 0 0 0-3-3Z" fill="none" stroke="currentColor" stroke-width="1.8" stroke-linejoin="round"/></symbol>
  <symbol id="personal-website" viewBox="0 0 24 24"><circle cx="12" cy="8" r="3" fill="none" stroke="currentColor" stroke-width="1.8"/><path d="M6 19a6 6 0 0 1 12 0" fill="none" stroke="currentColor" stroke-width="1.8" stroke-linecap="round"/></symbol>
  <symbol id="corporate-website" viewBox="0 0 24 24"><path d="M5 20V8l7-3 7 3v12M9 11h2M9 15h2M13 11h2M13 15h2M11 20v-4h2v4" fill="none" stroke="currentColor" stroke-width="1.8" stroke-linecap="round" stroke-linejoin="round"/></symbol>
  <symbol id="social-network-website" viewBox="0 0 24 24"><circle cx="7" cy="8" r="2" fill="none" stroke="currentColor" stroke-width="1.8"/><circle cx="17" cy="8" r="2" fill="none" stroke="currentColor" stroke-width="1.8"/><circle cx="12" cy="16" r="2" fill="none" stroke="currentColor" stroke-width="1.8"/><path d="M8.7 9.2 10.9 14M15.3 9.2 13.1 14M9 8h6" fill="none" stroke="currentColor" stroke-width="1.8" stroke-linecap="round"/></symbol>
  <symbol id="portals-development" viewBox="0 0 24 24"><rect x="4" y="5" width="16" height="14" rx="2" fill="none" stroke="currentColor" stroke-width="1.8"/><path d="M9 12h6M12 9v6" fill="none" stroke="currentColor" stroke-width="1.8" stroke-linecap="round"/></symbol>
  <symbol id="manufacturer-software" viewBox="0 0 24 24"><path d="M4 20V9l5 3V9l5 3V5l6 4v11Z" fill="none" stroke="currentColor" stroke-width="1.8" stroke-linejoin="round"/></symbol>
  <symbol id="landing-page" viewBox="0 0 24 24"><path d="M6 14 18 6M12 6h6v6" fill="none" stroke="currentColor" stroke-width="1.8" stroke-linecap="round" stroke-linejoin="round"/><path d="M5 18h14" fill="none" stroke="currentColor" stroke-width="1.8" stroke-linecap="round"/></symbol>
  <symbol id="cms-website" viewBox="0 0 24 24"><path d="M4 7h7v5H4zM13 7h7v5h-7zM4 14h7v5H4zM13 14h7v5h-7z" fill="none" stroke="currentColor" stroke-width="1.8"/></symbol>
  <symbol id="content-writing" viewBox="0 0 24 24"><path d="M6 5h9l3 3v11H6z" fill="none" stroke="currentColor" stroke-width="1.8" stroke-linejoin="round"/><path d="M15 5v3h3M9 12h6M9 16h4" fill="none" stroke="currentColor" stroke-width="1.8" stroke-linecap="round"/></symbol>
  <symbol id="process-flow" viewBox="0 0 24 24"><circle cx="6" cy="6" r="2" fill="none" stroke="currentColor" stroke-width="1.8"/><circle cx="18" cy="12" r="2" fill="none" stroke="currentColor" stroke-width="1.8"/><circle cx="6" cy="18" r="2" fill="none" stroke="currentColor" stroke-width="1.8"/><path d="M7.5 7.5 16.5 10.5M16.5 13.5 7.5 16.5" fill="none" stroke="currentColor" stroke-width="1.8" stroke-linecap="round"/></symbol>
</svg>